<svg width="164" height="24" viewBox="0 0 164 24" fill="none" xmlns="http://www.w3.org/2000/svg">
<path d="M49.5858 19.7963C49.5858 20.1318 49.3862 20.2995 48.987 20.2995H46.35C46.0506 20.2995 45.7282 20.1966 45.3828 19.9907C45.0373 19.7772 44.7686 19.5217 44.5767 19.2243L42.5501 16.0331C42.0664 15.2553 41.5789 14.6719 41.0876 14.283C40.5963 13.8865 40.0052 13.6882 39.3143 13.6882H36.8386V19.2472C36.8386 19.5446 36.7311 19.7963 36.5161 20.0021C36.3089 20.2004 36.0555 20.2995 35.7561 20.2995H33.5913C33.2919 20.2995 33.0347 20.1928 32.8198 19.9793C32.6048 19.7581 32.4974 19.4989 32.4974 19.2015V4.98377C32.4974 4.68637 32.6048 4.42711 32.8198 4.20597C33.0347 3.98483 33.2919 3.87426 33.5913 3.87426H35.7561C36.0555 3.87426 36.3089 3.98483 36.5161 4.20597C36.7311 4.42711 36.8386 4.68637 36.8386 4.98377V10.4627H39.3143C39.9899 10.4627 40.581 10.2797 41.0876 9.91364C41.602 9.54761 42.0894 8.95664 42.5501 8.14071L44.3349 4.98377C44.7418 4.25172 45.2945 3.88189 45.9931 3.87426H48.6531C49.0215 3.87426 49.2058 4.0344 49.2058 4.35467C49.2058 4.53005 49.1405 4.73975 49.01 4.98377L46.5113 9.47899C46.1504 10.1348 45.7436 10.6762 45.2906 11.1032C44.8454 11.5302 44.262 11.8314 43.5404 12.0068C44.047 12.1136 44.5652 12.43 45.0949 12.9562C45.6323 13.4824 46.1044 14.0543 46.5113 14.6719L49.39 19.2243C49.5205 19.4455 49.5858 19.6361 49.5858 19.7963Z" fill="#805AD5"/>
<path d="M52.0731 18.8583C50.8908 17.745 50.2997 16.1437 50.2997 14.0543C50.2997 11.9573 50.8947 10.3483 52.0846 9.22734C53.2745 8.09877 54.925 7.53449 57.0361 7.53449C59.1472 7.53449 60.7938 8.08352 61.9761 9.18159C63.1583 10.272 63.7494 11.8391 63.7494 13.8827V14.5347C63.7494 14.7406 63.6803 14.9121 63.5421 15.0494C63.4116 15.179 63.2427 15.2438 63.0354 15.2438H54.3646C54.4413 16.1818 54.71 16.8643 55.1706 17.2913C55.6389 17.7183 56.3835 17.9318 57.4046 17.9318C58.4256 17.9318 59.1241 17.7031 59.5003 17.2455C59.8765 16.788 60.3409 16.5554 60.8936 16.5478H62.6094C62.8167 16.5478 62.9856 16.6164 63.1161 16.7537C63.2542 16.8833 63.3233 17.0511 63.3233 17.257C63.3233 19.4455 61.2237 20.5359 57.0246 20.5283C54.9058 20.5283 53.2553 19.9716 52.0731 18.8583ZM54.3415 12.8304H59.6961C59.6193 11.0308 58.7288 10.131 57.0246 10.131C55.328 10.131 54.4337 11.0308 54.3415 12.8304Z" fill="#805AD5"/>
<path d="M65.8682 19.6018V8.47242C65.8682 8.26654 65.9334 8.09877 66.0639 7.96914C66.2021 7.83188 66.371 7.76325 66.5706 7.76325H69.15C69.3496 7.76325 69.5146 7.83188 69.6451 7.96914C69.7833 8.09877 69.8524 8.26654 69.8524 8.47242V9.19303C71.1728 8.08734 72.5776 7.53449 74.0669 7.53449C75.5639 7.53449 76.7807 7.98821 77.7172 8.89564C78.6538 9.79544 79.1221 11.1757 79.1221 13.0363V19.6018C79.1221 19.8001 79.053 19.9678 78.9148 20.1051C78.7843 20.2347 78.6154 20.2995 78.4081 20.2995H75.8403C75.6407 20.2995 75.4718 20.2347 75.3336 20.1051C75.2031 19.9678 75.1378 19.8001 75.1378 19.6018V13.0363C75.1378 11.2138 74.4047 10.3025 72.9385 10.3025C71.9789 10.3025 70.9502 10.8478 69.8524 11.9382V19.6018C69.8524 19.8001 69.7833 19.9678 69.6451 20.1051C69.5146 20.2347 69.3496 20.2995 69.15 20.2995H66.5706C66.371 20.2995 66.2021 20.2347 66.0639 20.1051C65.9334 19.9678 65.8682 19.8001 65.8682 19.6018Z" fill="#805AD5"/>
<path d="M81.9663 19.6018V8.47242C81.9663 8.26654 82.0316 8.09877 82.1621 7.96914C82.3002 7.83188 82.4691 7.76325 82.6687 7.76325H85.2481C85.4477 7.76325 85.6128 7.83188 85.7433 7.96914C85.8814 8.09877 85.9505 8.26654 85.9505 8.47242V9.19303C87.2709 8.08734 88.6758 7.53449 90.1651 7.53449C91.662 7.53449 92.8788 7.98821 93.8154 8.89564C94.7519 9.79544 95.2202 11.1757 95.2202 13.0363V19.6018C95.2202 19.8001 95.1511 19.9678 95.0129 20.1051C94.8824 20.2347 94.7135 20.2995 94.5063 20.2995H91.9384C91.7388 20.2995 91.5699 20.2347 91.4317 20.1051C91.3012 19.9678 91.236 19.8001 91.236 19.6018V13.0363C91.236 11.2138 90.5028 10.3025 89.0366 10.3025C88.077 10.3025 87.0483 10.8478 85.9505 11.9382V19.6018C85.9505 19.8001 85.8814 19.9678 85.7433 20.1051C85.6128 20.2347 85.4477 20.2995 85.2481 20.2995H82.6687C82.4691 20.2995 82.3002 20.2347 82.1621 20.1051C82.0316 19.9678 81.9663 19.8001 81.9663 19.6018Z" fill="#805AD5"/>
<path d="M99.1238 18.8583C97.9416 17.745 97.3505 16.1437 97.3505 14.0543C97.3505 11.9573 97.9454 10.3483 99.1353 9.22734C100.325 8.09877 101.976 7.53449 104.087 7.53449C106.198 7.53449 107.845 8.08352 109.027 9.18159C110.209 10.272 110.8 11.8391 110.8 13.8827V14.5347C110.8 14.7406 110.731 14.9121 110.593 15.0494C110.462 15.179 110.293 15.2438 110.086 15.2438H101.415C101.492 16.1818 101.761 16.8643 102.221 17.2913C102.69 17.7183 103.434 17.9318 104.455 17.9318C105.476 17.9318 106.175 17.7031 106.551 17.2455C106.927 16.788 107.392 16.5554 107.944 16.5478H109.66C109.867 16.5478 110.036 16.6164 110.167 16.7537C110.305 16.8833 110.374 17.0511 110.374 17.257C110.374 19.4455 108.275 20.5359 104.075 20.5283C101.957 20.5283 100.306 19.9716 99.1238 18.8583ZM101.392 12.8304H106.747C106.67 11.0308 105.78 10.131 104.075 10.131C102.379 10.131 101.484 11.0308 101.392 12.8304Z" fill="#805AD5"/>
<path d="M112.919 19.6018V4.60631C112.919 4.40042 112.984 4.23266 113.115 4.10303C113.253 3.96577 113.422 3.89714 113.621 3.89714H116.201C116.4 3.89714 116.565 3.96577 116.696 4.10303C116.834 4.23266 116.903 4.40042 116.903 4.60631V19.6018C116.903 19.8001 116.834 19.9678 116.696 20.1051C116.565 20.2347 116.4 20.2995 116.201 20.2995H113.621C113.422 20.2995 113.253 20.2347 113.115 20.1051C112.984 19.9678 112.919 19.8001 112.919 19.6018Z" fill="#805AD5"/>
<path d="M120.542 19.476C119.529 18.7744 119.022 17.7831 119.022 16.502C119.022 15.221 119.529 14.2373 120.542 13.551C121.563 12.8647 122.876 12.5215 124.48 12.5215H128.292C128.292 11.6294 128.104 11.0079 127.727 10.6571C127.351 10.3063 126.691 10.131 125.747 10.131C124.81 10.131 124.15 10.3635 123.766 10.8287C123.39 11.2862 122.926 11.515 122.373 11.515H120.657C120.45 11.515 120.277 11.4502 120.139 11.3205C120.008 11.1833 119.943 11.0155 119.943 10.8173C119.943 8.62875 122.035 7.53449 126.219 7.53449C128.046 7.53449 129.512 7.94245 130.618 8.75838C131.723 9.56668 132.276 10.8211 132.276 12.5215V19.6018C132.276 19.8077 132.211 19.9755 132.08 20.1051C131.95 20.2347 131.781 20.2995 131.573 20.2995H129.351C129.144 20.2995 128.975 20.2347 128.844 20.1051C128.714 19.9678 128.649 19.8001 128.649 19.6018V19.2472C127.436 20.1089 126.035 20.5359 124.446 20.5283C122.864 20.5283 121.563 20.1775 120.542 19.476ZM124.756 15.118C124.219 15.118 123.793 15.2477 123.478 15.5069C123.171 15.7662 123.018 16.1017 123.018 16.5135C123.018 16.9253 123.179 17.2646 123.501 17.5315C123.824 17.7984 124.281 17.9318 124.872 17.9318C126.054 17.9318 127.194 17.5887 128.292 16.9024V15.118H124.756Z" fill="#805AD5"/>
<path d="M135.12 19.6018V8.47242C135.12 8.26654 135.185 8.09877 135.316 7.96914C135.454 7.83188 135.623 7.76325 135.823 7.76325H138.402C138.601 7.76325 138.767 7.83188 138.897 7.96914C139.035 8.09877 139.104 8.26654 139.104 8.47242V9.19303C140.425 8.08734 141.83 7.53449 143.319 7.53449C144.816 7.53449 146.033 7.98821 146.969 8.89564C147.906 9.79544 148.374 11.1757 148.374 13.0363V19.6018C148.374 19.8001 148.305 19.9678 148.167 20.1051C148.036 20.2347 147.867 20.2995 147.66 20.2995H145.092C144.893 20.2995 144.724 20.2347 144.586 20.1051C144.455 19.9678 144.39 19.8001 144.39 19.6018V13.0363C144.39 11.2138 143.657 10.3025 142.19 10.3025C141.231 10.3025 140.202 10.8478 139.104 11.9382V19.6018C139.104 19.8001 139.035 19.9678 138.897 20.1051C138.767 20.2347 138.601 20.2995 138.402 20.2995H135.823C135.623 20.2995 135.454 20.2347 135.316 20.1051C135.185 19.9678 135.12 19.8001 135.12 19.6018Z" fill="#805AD5"/>
<path d="M156.147 20.5283C154.542 20.5283 153.199 19.9678 152.116 18.8469C151.042 17.7259 150.504 16.1208 150.504 14.0314C150.504 11.9344 151.061 10.3292 152.174 9.21591C153.295 8.09496 154.799 7.53449 156.688 7.53449C157.663 7.53449 158.772 7.72894 160.016 8.11784V4.60631C160.016 4.40042 160.081 4.23266 160.212 4.10303C160.35 3.96577 160.519 3.89714 160.718 3.89714H163.286C163.493 3.89714 163.662 3.96577 163.793 4.10303C163.931 4.23266 164 4.40042 164 4.60631V19.6018C164 19.8001 163.931 19.9678 163.793 20.1051C163.662 20.2347 163.493 20.2995 163.286 20.2995H161.075C160.868 20.2995 160.699 20.2347 160.568 20.1051C160.438 19.9678 160.373 19.8001 160.373 19.6018V19.2472C159.16 20.1013 157.751 20.5283 156.147 20.5283ZM157.517 10.3025C156.458 10.3025 155.709 10.5999 155.272 11.1947C154.834 11.7819 154.615 12.7274 154.615 14.0314C154.615 15.3353 154.822 16.2847 155.237 16.8795C155.652 17.4743 156.273 17.7717 157.102 17.7717C157.939 17.7717 158.91 17.4285 160.016 16.7422V10.7601C159.025 10.455 158.193 10.3025 157.517 10.3025Z" fill="#805AD5"/>
<path fill-rule="evenodd" clip-rule="evenodd" d="M4.17057 3.76194C3.37419 4.68815 2.89322 5.91088 2.84663 7.12759C2.81688 7.90664 2.88712 8.18613 3.37882 9.245C4.11113 10.8219 4.86653 11.5423 6.3144 12.0443C7.85739 12.5793 9.01688 12.2421 9.83607 11.0202C10.5807 9.90915 10.5471 8.91431 9.69469 6.85099C8.6479 4.31667 7.4432 2.90821 6.17351 2.73411C5.38301 2.6257 4.96156 2.84189 4.17057 3.76194ZM10.459 0.594281C10.065 0.988087 9.84843 1.92837 9.94576 2.82347C10.0169 3.47836 10.2469 4.12249 10.982 5.72405C11.8996 7.7232 11.9482 7.79911 12.6597 8.3458C13.4966 8.98912 14.3659 9.21041 15.2653 9.00953C16.6802 8.69355 17.497 7.46312 17.6166 5.46735C17.6843 4.33835 17.6532 4.17839 17.1546 3.09216C16.6766 2.0507 16.5315 1.85734 15.7835 1.26484C14.0667 -0.0947674 11.4748 -0.421239 10.459 0.594281ZM0.314288 11.957C-0.180255 12.572 -0.0810566 14.4663 0.540639 16.2813C1.41537 18.8351 3.94203 20.0513 6.26259 19.0354C7.22346 18.6148 7.60428 18.1281 7.66937 17.2375C7.82165 15.1558 3.93559 11.4295 1.55885 11.3783C0.978674 11.3659 0.676868 11.5062 0.314288 11.957ZM20.0142 2.92672C19.2026 3.80416 18.7854 5.69012 18.9406 7.77931C19.1279 10.2968 20.1787 12.0045 21.498 11.9351C22.7241 11.8705 24.0052 10.9394 24.5863 9.69042C25.2683 8.22449 25.0934 6.73462 24.0539 5.15378C22.4737 2.75113 20.9525 1.91246 20.0142 2.92672ZM10.8096 11.645C10.2741 12.2631 10.09 12.7719 9.61778 14.9371C9.42938 15.8014 9.03271 16.9984 8.73642 17.5972C8.4386 18.199 8.15461 19.0779 8.1018 19.5619C8.0167 20.3413 8.06153 20.5574 8.51008 21.5303C8.94121 22.4652 9.11159 22.6939 9.68999 23.1131C10.531 23.7229 11.8914 24.0948 12.858 23.9789C13.7765 23.8688 14.9345 23.349 15.8157 22.6511C16.6862 21.9617 18.1129 21.3149 19.0913 21.166C19.5146 21.1016 20.2731 20.863 20.7768 20.6358C21.5214 20.3 21.8174 20.0777 22.3595 19.4472C23.5863 18.0205 23.8245 16.5284 23.0803 14.9319C22.4568 13.5942 21.8427 13.1224 19.9972 12.5625C19.1884 12.3173 17.8011 11.7174 16.9145 11.2298C14.6564 9.98771 13.9312 9.90556 12.1899 10.6944C11.5394 10.989 11.1386 11.265 10.8096 11.645Z" fill="#805AD5"/>
</svg>
